<?xml version="1.0" encoding="utf-8" standalone="no"?>
<!DOCTYPE svg PUBLIC "-//W3C//DTD SVG 1.1//EN"
  "http://www.w3.org/Graphics/SVG/1.1/DTD/svg11.dtd">
<svg xmlns:xlink="http://www.w3.org/1999/xlink" width="720pt" height="360pt" viewBox="0 0 720 360" xmlns="http://www.w3.org/2000/svg" version="1.1">
 <metadata>
  <rdf:RDF xmlns:dc="http://purl.org/dc/elements/1.1/" xmlns:cc="http://creativecommons.org/ns#" xmlns:rdf="http://www.w3.org/1999/02/22-rdf-syntax-ns#">
   <cc:Work>
    <dc:type rdf:resource="http://purl.org/dc/dcmitype/StillImage"/>
    <dc:date>2026-02-14T00:07:29.692525</dc:date>
    <dc:format>image/svg+xml</dc:format>
    <dc:creator>
     <cc:Agent>
      <dc:title>Matplotlib v3.8.0, https://matplotlib.org/</dc:title>
     </cc:Agent>
    </dc:creator>
   </cc:Work>
  </rdf:RDF>
 </metadata>
 <defs>
  <style type="text/css">*{stroke-linejoin: round; stroke-linecap: butt}</style>
 </defs>
 <g id="figure_1">
  <g id="patch_1">
   <path d="M 0 360 
L 720 360 
L 720 0 
L 0 0 
z
" style="fill: #ffffff"/>
  </g>
  <g id="axes_1">
   <g id="patch_2">
    <path d="M 52.925 316.7 
L 354.6 316.7 
L 354.6 51.1 
L 52.925 51.1 
z
" style="fill: #ffffff"/>
   </g>
   <g id="patch_3">
    <path d="M 66.6375 316.7 
L 83.778125 316.7 
L 83.778125 315.296304 
L 66.6375 315.296304 
z
" clip-path="url(#p7619d9bcb1)" style="fill: #ff7f0e; fill-opacity: 0.5; stroke: #000000; stroke-linejoin: miter"/>
   </g>
   <g id="patch_4">
    <path d="M 83.778125 316.7 
L 100.91875 316.7 
L 100.91875 313.190759 
L 83.778125 313.190759 
z
" clip-path="url(#p7619d9bcb1)" style="fill: #ff7f0e; fill-opacity: 0.5; stroke: #000000; stroke-linejoin: miter"/>
   </g>
   <g id="patch_5">
    <path d="M 100.91875 316.7 
L 118.059375 316.7 
L 118.059375 298.451948 
L 100.91875 298.451948 
z
" clip-path="url(#p7619d9bcb1)" style="fill: #ff7f0e; fill-opacity: 0.5; stroke: #000000; stroke-linejoin: miter"/>
   </g>
   <g id="patch_6">
    <path d="M 118.059375 316.7 
L 135.2 316.7 
L 135.2 184.0507 
L 118.059375 184.0507 
z
" clip-path="url(#p7619d9bcb1)" style="fill: #ff7f0e; fill-opacity: 0.5; stroke: #000000; stroke-linejoin: miter"/>
   </g>
   <g id="patch_7">
    <path d="M 135.2 316.7 
L 152.340625 316.7 
L 152.340625 90.704897 
L 135.2 90.704897 
z
" clip-path="url(#p7619d9bcb1)" style="fill: #ff7f0e; fill-opacity: 0.5; stroke: #000000; stroke-linejoin: miter"/>
   </g>
   <g id="patch_8">
    <path d="M 152.340625 316.7 
L 169.48125 316.7 
L 169.48125 275.992807 
L 152.340625 275.992807 
z
" clip-path="url(#p7619d9bcb1)" style="fill: #ff7f0e; fill-opacity: 0.5; stroke: #000000; stroke-linejoin: miter"/>
   </g>
   <g id="patch_9">
    <path d="M 169.48125 316.7 
L 186.621875 316.7 
L 186.621875 316.7 
L 169.48125 316.7 
z
" clip-path="url(#p7619d9bcb1)" style="fill: #ff7f0e; fill-opacity: 0.5; stroke: #000000; stroke-linejoin: miter"/>
   </g>
   <g id="patch_10">
    <path d="M 186.621875 316.7 
L 203.7625 316.7 
L 203.7625 316.7 
L 186.621875 316.7 
z
" clip-path="url(#p7619d9bcb1)" style="fill: #ff7f0e; fill-opacity: 0.5; stroke: #000000; stroke-linejoin: miter"/>
   </g>
   <g id="patch_11">
    <path d="M 203.7625 316.7 
L 220.903125 316.7 
L 220.903125 316.7 
L 203.7625 316.7 
z
" clip-path="url(#p7619d9bcb1)" style="fill: #ff7f0e; fill-opacity: 0.5; stroke: #000000; stroke-linejoin: miter"/>
   </g>
   <g id="patch_12">
    <path d="M 220.903125 316.7 
L 238.04375 316.7 
L 238.04375 316.7 
L 220.903125 316.7 
z
" clip-path="url(#p7619d9bcb1)" style="fill: #ff7f0e; fill-opacity: 0.5; stroke: #000000; stroke-linejoin: miter"/>
   </g>
   <g id="patch_13">
    <path d="M 238.04375 316.7 
L 255.184375 316.7 
L 255.184375 316.7 
L 238.04375 316.7 
z
" clip-path="url(#p7619d9bcb1)" style="fill: #ff7f0e; fill-opacity: 0.5; stroke: #000000; stroke-linejoin: miter"/>
   </g>
   <g id="patch_14">
    <path d="M 255.184375 316.7 
L 272.325 316.7 
L 272.325 316.7 
L 255.184375 316.7 
z
" clip-path="url(#p7619d9bcb1)" style="fill: #ff7f0e; fill-opacity: 0.5; stroke: #000000; stroke-linejoin: miter"/>
   </g>
   <g id="patch_15">
    <path d="M 272.325 316.7 
L 289.465625 316.7 
L 289.465625 316.7 
L 272.325 316.7 
z
" clip-path="url(#p7619d9bcb1)" style="fill: #ff7f0e; fill-opacity: 0.5; stroke: #000000; stroke-linejoin: miter"/>
   </g>
   <g id="patch_16">
    <path d="M 289.465625 316.7 
L 306.60625 316.7 
L 306.60625 316.7 
L 289.465625 316.7 
z
" clip-path="url(#p7619d9bcb1)" style="fill: #ff7f0e; fill-opacity: 0.5; stroke: #000000; stroke-linejoin: miter"/>
   </g>
   <g id="patch_17">
    <path d="M 306.60625 316.7 
L 323.746875 316.7 
L 323.746875 316.7 
L 306.60625 316.7 
z
" clip-path="url(#p7619d9bcb1)" style="fill: #ff7f0e; fill-opacity: 0.5; stroke: #000000; stroke-linejoin: miter"/>
   </g>
   <g id="patch_18">
    <path d="M 323.746875 316.7 
L 340.8875 316.7 
L 340.8875 316.7 
L 323.746875 316.7 
z
" clip-path="url(#p7619d9bcb1)" style="fill: #ff7f0e; fill-opacity: 0.5; stroke: #000000; stroke-linejoin: miter"/>
   </g>
   <g id="patch_19">
    <path d="M 66.6375 316.7 
L 83.778125 316.7 
L 83.778125 316.7 
L 66.6375 316.7 
z
" clip-path="url(#p7619d9bcb1)" style="fill: #1f77b4; fill-opacity: 0.5; stroke: #000000; stroke-linejoin: miter"/>
   </g>
   <g id="patch_20">
    <path d="M 83.778125 316.7 
L 100.91875 316.7 
L 100.91875 316.7 
L 83.778125 316.7 
z
" clip-path="url(#p7619d9bcb1)" style="fill: #1f77b4; fill-opacity: 0.5; stroke: #000000; stroke-linejoin: miter"/>
   </g>
   <g id="patch_21">
    <path d="M 100.91875 316.7 
L 118.059375 316.7 
L 118.059375 316.7 
L 100.91875 316.7 
z
" clip-path="url(#p7619d9bcb1)" style="fill: #1f77b4; fill-opacity: 0.5; stroke: #000000; stroke-linejoin: miter"/>
   </g>
   <g id="patch_22">
    <path d="M 118.059375 316.7 
L 135.2 316.7 
L 135.2 316.7 
L 118.059375 316.7 
z
" clip-path="url(#p7619d9bcb1)" style="fill: #1f77b4; fill-opacity: 0.5; stroke: #000000; stroke-linejoin: miter"/>
   </g>
   <g id="patch_23">
    <path d="M 135.2 316.7 
L 152.340625 316.7 
L 152.340625 316.7 
L 135.2 316.7 
z
" clip-path="url(#p7619d9bcb1)" style="fill: #1f77b4; fill-opacity: 0.5; stroke: #000000; stroke-linejoin: miter"/>
   </g>
   <g id="patch_24">
    <path d="M 152.340625 316.7 
L 169.48125 316.7 
L 169.48125 315.998152 
L 152.340625 315.998152 
z
" clip-path="url(#p7619d9bcb1)" style="fill: #1f77b4; fill-opacity: 0.5; stroke: #000000; stroke-linejoin: miter"/>
   </g>
   <g id="patch_25">
    <path d="M 169.48125 316.7 
L 186.621875 316.7 
L 186.621875 314.594456 
L 169.48125 314.594456 
z
" clip-path="url(#p7619d9bcb1)" style="fill: #1f77b4; fill-opacity: 0.5; stroke: #000000; stroke-linejoin: miter"/>
   </g>
   <g id="patch_26">
    <path d="M 186.621875 316.7 
L 203.7625 316.7 
L 203.7625 299.855644 
L 186.621875 299.855644 
z
" clip-path="url(#p7619d9bcb1)" style="fill: #1f77b4; fill-opacity: 0.5; stroke: #000000; stroke-linejoin: miter"/>
   </g>
   <g id="patch_27">
    <path d="M 203.7625 316.7 
L 220.903125 316.7 
L 220.903125 226.863437 
L 203.7625 226.863437 
z
" clip-path="url(#p7619d9bcb1)" style="fill: #1f77b4; fill-opacity: 0.5; stroke: #000000; stroke-linejoin: miter"/>
   </g>
   <g id="patch_28">
    <path d="M 220.903125 316.7 
L 238.04375 316.7 
L 238.04375 206.509841 
L 220.903125 206.509841 
z
" clip-path="url(#p7619d9bcb1)" style="fill: #1f77b4; fill-opacity: 0.5; stroke: #000000; stroke-linejoin: miter"/>
   </g>
   <g id="patch_29">
    <path d="M 238.04375 316.7 
L 255.184375 316.7 
L 255.184375 283.011289 
L 238.04375 283.011289 
z
" clip-path="url(#p7619d9bcb1)" style="fill: #1f77b4; fill-opacity: 0.5; stroke: #000000; stroke-linejoin: miter"/>
   </g>
   <g id="patch_30">
    <path d="M 255.184375 316.7 
L 272.325 316.7 
L 272.325 283.011289 
L 255.184375 283.011289 
z
" clip-path="url(#p7619d9bcb1)" style="fill: #1f77b4; fill-opacity: 0.5; stroke: #000000; stroke-linejoin: miter"/>
   </g>
   <g id="patch_31">
    <path d="M 272.325 316.7 
L 289.465625 316.7 
L 289.465625 288.626074 
L 272.325 288.626074 
z
" clip-path="url(#p7619d9bcb1)" style="fill: #1f77b4; fill-opacity: 0.5; stroke: #000000; stroke-linejoin: miter"/>
   </g>
   <g id="patch_32">
    <path d="M 289.465625 316.7 
L 306.60625 316.7 
L 306.60625 301.259341 
L 289.465625 301.259341 
z
" clip-path="url(#p7619d9bcb1)" style="fill: #1f77b4; fill-opacity: 0.5; stroke: #000000; stroke-linejoin: miter"/>
   </g>
   <g id="patch_33">
    <path d="M 306.60625 316.7 
L 323.746875 316.7 
L 323.746875 298.451948 
L 306.60625 298.451948 
z
" clip-path="url(#p7619d9bcb1)" style="fill: #1f77b4; fill-opacity: 0.5; stroke: #000000; stroke-linejoin: miter"/>
   </g>
   <g id="patch_34">
    <path d="M 323.746875 316.7 
L 340.8875 316.7 
L 340.8875 301.961189 
L 323.746875 301.961189 
z
" clip-path="url(#p7619d9bcb1)" style="fill: #1f77b4; fill-opacity: 0.5; stroke: #000000; stroke-linejoin: miter"/>
   </g>
   <g id="matplotlib.axis_1">
    <g id="xtick_1">
     <g id="line2d_1">
      <defs>
       <path id="m13f940b191" d="M 0 0 
L 0 3.5 
" style="stroke: #000000; stroke-width: 0.8"/>
      </defs>
      <g>
       <use xlink:href="#m13f940b191" x="71.508928" y="316.7" style="stroke: #000000; stroke-width: 0.8"/>
      </g>
     </g>
     <g id="text_1">
      <!-- 0 -->
      <g transform="translate(68.327678 331.298437) scale(0.1 -0.1)">
       <defs>
        <path id="DejaVuSans-30" d="M 2034 4250 
Q 1547 4250 1301 3770 
Q 1056 3291 1056 2328 
Q 1056 1369 1301 889 
Q 1547 409 2034 409 
Q 2525 409 2770 889 
Q 3016 1369 3016 2328 
Q 3016 3291 2770 3770 
Q 2525 4250 2034 4250 
z
M 2034 4750 
Q 2819 4750 3233 4129 
Q 3647 3509 3647 2328 
Q 3647 1150 3233 529 
Q 2819 -91 2034 -91 
Q 1250 -91 836 529 
Q 422 1150 422 2328 
Q 422 3509 836 4129 
Q 1250 4750 2034 4750 
z
" transform="scale(0.015625)"/>
       </defs>
       <use xlink:href="#DejaVuSans-30"/>
      </g>
     </g>
    </g>
    <g id="xtick_2">
     <g id="line2d_2">
      <g>
       <use xlink:href="#m13f940b191" x="113.346546" y="316.7" style="stroke: #000000; stroke-width: 0.8"/>
      </g>
     </g>
     <g id="text_2">
      <!-- 200 -->
      <g transform="translate(103.802796 331.298437) scale(0.1 -0.1)">
       <defs>
        <path id="DejaVuSans-32" d="M 1228 531 
L 3431 531 
L 3431 0 
L 469 0 
L 469 531 
Q 828 903 1448 1529 
Q 2069 2156 2228 2338 
Q 2531 2678 2651 2914 
Q 2772 3150 2772 3378 
Q 2772 3750 2511 3984 
Q 2250 4219 1831 4219 
Q 1534 4219 1204 4116 
Q 875 4013 500 3803 
L 500 4441 
Q 881 4594 1212 4672 
Q 1544 4750 1819 4750 
Q 2544 4750 2975 4387 
Q 3406 4025 3406 3419 
Q 3406 3131 3298 2873 
Q 3191 2616 2906 2266 
Q 2828 2175 2409 1742 
Q 1991 1309 1228 531 
z
" transform="scale(0.015625)"/>
       </defs>
       <use xlink:href="#DejaVuSans-32"/>
       <use xlink:href="#DejaVuSans-30" x="63.623047"/>
       <use xlink:href="#DejaVuSans-30" x="127.246094"/>
      </g>
     </g>
    </g>
    <g id="xtick_3">
     <g id="line2d_3">
      <g>
       <use xlink:href="#m13f940b191" x="155.184163" y="316.7" style="stroke: #000000; stroke-width: 0.8"/>
      </g>
     </g>
     <g id="text_3">
      <!-- 400 -->
      <g transform="translate(145.640413 331.298437) scale(0.1 -0.1)">
       <defs>
        <path id="DejaVuSans-34" d="M 2419 4116 
L 825 1625 
L 2419 1625 
L 2419 4116 
z
M 2253 4666 
L 3047 4666 
L 3047 1625 
L 3713 1625 
L 3713 1100 
L 3047 1100 
L 3047 0 
L 2419 0 
L 2419 1100 
L 313 1100 
L 313 1709 
L 2253 4666 
z
" transform="scale(0.015625)"/>
       </defs>
       <use xlink:href="#DejaVuSans-34"/>
       <use xlink:href="#DejaVuSans-30" x="63.623047"/>
       <use xlink:href="#DejaVuSans-30" x="127.246094"/>
      </g>
     </g>
    </g>
    <g id="xtick_4">
     <g id="line2d_4">
      <g>
       <use xlink:href="#m13f940b191" x="197.021781" y="316.7" style="stroke: #000000; stroke-width: 0.8"/>
      </g>
     </g>
     <g id="text_4">
      <!-- 600 -->
      <g transform="translate(187.478031 331.298437) scale(0.1 -0.1)">
       <defs>
        <path id="DejaVuSans-36" d="M 2113 2584 
Q 1688 2584 1439 2293 
Q 1191 2003 1191 1497 
Q 1191 994 1439 701 
Q 1688 409 2113 409 
Q 2538 409 2786 701 
Q 3034 994 3034 1497 
Q 3034 2003 2786 2293 
Q 2538 2584 2113 2584 
z
M 3366 4563 
L 3366 3988 
Q 3128 4100 2886 4159 
Q 2644 4219 2406 4219 
Q 1781 4219 1451 3797 
Q 1122 3375 1075 2522 
Q 1259 2794 1537 2939 
Q 1816 3084 2150 3084 
Q 2853 3084 3261 2657 
Q 3669 2231 3669 1497 
Q 3669 778 3244 343 
Q 2819 -91 2113 -91 
Q 1303 -91 875 529 
Q 447 1150 447 2328 
Q 447 3434 972 4092 
Q 1497 4750 2381 4750 
Q 2619 4750 2861 4703 
Q 3103 4656 3366 4563 
z
" transform="scale(0.015625)"/>
       </defs>
       <use xlink:href="#DejaVuSans-36"/>
       <use xlink:href="#DejaVuSans-30" x="63.623047"/>
       <use xlink:href="#DejaVuSans-30" x="127.246094"/>
      </g>
     </g>
    </g>
    <g id="xtick_5">
     <g id="line2d_5">
      <g>
       <use xlink:href="#m13f940b191" x="238.859398" y="316.7" style="stroke: #000000; stroke-width: 0.8"/>
      </g>
     </g>
     <g id="text_5">
      <!-- 800 -->
      <g transform="translate(229.315648 331.298437) scale(0.1 -0.1)">
       <defs>
        <path id="DejaVuSans-38" d="M 2034 2216 
Q 1584 2216 1326 1975 
Q 1069 1734 1069 1313 
Q 1069 891 1326 650 
Q 1584 409 2034 409 
Q 2484 409 2743 651 
Q 3003 894 3003 1313 
Q 3003 1734 2745 1975 
Q 2488 2216 2034 2216 
z
M 1403 2484 
Q 997 2584 770 2862 
Q 544 3141 544 3541 
Q 544 4100 942 4425 
Q 1341 4750 2034 4750 
Q 2731 4750 3128 4425 
Q 3525 4100 3525 3541 
Q 3525 3141 3298 2862 
Q 3072 2584 2669 2484 
Q 3125 2378 3379 2068 
Q 3634 1759 3634 1313 
Q 3634 634 3220 271 
Q 2806 -91 2034 -91 
Q 1263 -91 848 271 
Q 434 634 434 1313 
Q 434 1759 690 2068 
Q 947 2378 1403 2484 
z
M 1172 3481 
Q 1172 3119 1398 2916 
Q 1625 2713 2034 2713 
Q 2441 2713 2670 2916 
Q 2900 3119 2900 3481 
Q 2900 3844 2670 4047 
Q 2441 4250 2034 4250 
Q 1625 4250 1398 4047 
Q 1172 3844 1172 3481 
z
" transform="scale(0.015625)"/>
       </defs>
       <use xlink:href="#DejaVuSans-38"/>
       <use xlink:href="#DejaVuSans-30" x="63.623047"/>
       <use xlink:href="#DejaVuSans-30" x="127.246094"/>
      </g>
     </g>
    </g>
    <g id="xtick_6">
     <g id="line2d_6">
      <g>
       <use xlink:href="#m13f940b191" x="280.697016" y="316.7" style="stroke: #000000; stroke-width: 0.8"/>
      </g>
     </g>
     <g id="text_6">
      <!-- 1000 -->
      <g transform="translate(267.972016 331.298437) scale(0.1 -0.1)">
       <defs>
        <path id="DejaVuSans-31" d="M 794 531 
L 1825 531 
L 1825 4091 
L 703 3866 
L 703 4441 
L 1819 4666 
L 2450 4666 
L 2450 531 
L 3481 531 
L 3481 0 
L 794 0 
L 794 531 
z
" transform="scale(0.015625)"/>
       </defs>
       <use xlink:href="#DejaVuSans-31"/>
       <use xlink:href="#DejaVuSans-30" x="63.623047"/>
       <use xlink:href="#DejaVuSans-30" x="127.246094"/>
       <use xlink:href="#DejaVuSans-30" x="190.869141"/>
      </g>
     </g>
    </g>
    <g id="xtick_7">
     <g id="line2d_7">
      <g>
       <use xlink:href="#m13f940b191" x="322.534633" y="316.7" style="stroke: #000000; stroke-width: 0.8"/>
      </g>
     </g>
     <g id="text_7">
      <!-- 1200 -->
      <g transform="translate(309.809633 331.298437) scale(0.1 -0.1)">
       <use xlink:href="#DejaVuSans-31"/>
       <use xlink:href="#DejaVuSans-32" x="63.623047"/>
       <use xlink:href="#DejaVuSans-30" x="127.246094"/>
       <use xlink:href="#DejaVuSans-30" x="190.869141"/>
      </g>
     </g>
    </g>
    <g id="text_8">
     <!-- Red Fluorescence (RFU) -->
     <g transform="translate(122.8525 346.49625) scale(0.12 -0.12)">
      <defs>
       <path id="DejaVuSans-Bold-52" d="M 2297 2597 
Q 2675 2597 2839 2737 
Q 3003 2878 3003 3200 
Q 3003 3519 2839 3656 
Q 2675 3794 2297 3794 
L 1791 3794 
L 1791 2597 
L 2297 2597 
z
M 1791 1766 
L 1791 0 
L 588 0 
L 588 4666 
L 2425 4666 
Q 3347 4666 3776 4356 
Q 4206 4047 4206 3378 
Q 4206 2916 3982 2619 
Q 3759 2322 3309 2181 
Q 3556 2125 3751 1926 
Q 3947 1728 4147 1325 
L 4800 0 
L 3519 0 
L 2950 1159 
Q 2778 1509 2601 1637 
Q 2425 1766 2131 1766 
L 1791 1766 
z
" transform="scale(0.015625)"/>
       <path id="DejaVuSans-Bold-65" d="M 4031 1759 
L 4031 1441 
L 1416 1441 
Q 1456 1047 1700 850 
Q 1944 653 2381 653 
Q 2734 653 3104 758 
Q 3475 863 3866 1075 
L 3866 213 
Q 3469 63 3072 -14 
Q 2675 -91 2278 -91 
Q 1328 -91 801 392 
Q 275 875 275 1747 
Q 275 2603 792 3093 
Q 1309 3584 2216 3584 
Q 3041 3584 3536 3087 
Q 4031 2591 4031 1759 
z
M 2881 2131 
Q 2881 2450 2695 2645 
Q 2509 2841 2209 2841 
Q 1884 2841 1681 2658 
Q 1478 2475 1428 2131 
L 2881 2131 
z
" transform="scale(0.015625)"/>
       <path id="DejaVuSans-Bold-64" d="M 2919 2988 
L 2919 4863 
L 4044 4863 
L 4044 0 
L 2919 0 
L 2919 506 
Q 2688 197 2409 53 
Q 2131 -91 1766 -91 
Q 1119 -91 703 423 
Q 288 938 288 1747 
Q 288 2556 703 3070 
Q 1119 3584 1766 3584 
Q 2128 3584 2408 3439 
Q 2688 3294 2919 2988 
z
M 2181 722 
Q 2541 722 2730 984 
Q 2919 1247 2919 1747 
Q 2919 2247 2730 2509 
Q 2541 2772 2181 2772 
Q 1825 2772 1636 2509 
Q 1447 2247 1447 1747 
Q 1447 1247 1636 984 
Q 1825 722 2181 722 
z
" transform="scale(0.015625)"/>
       <path id="DejaVuSans-Bold-20" transform="scale(0.015625)"/>
       <path id="DejaVuSans-Bold-46" d="M 588 4666 
L 3834 4666 
L 3834 3756 
L 1791 3756 
L 1791 2888 
L 3713 2888 
L 3713 1978 
L 1791 1978 
L 1791 0 
L 588 0 
L 588 4666 
z
" transform="scale(0.015625)"/>
       <path id="DejaVuSans-Bold-6c" d="M 538 4863 
L 1656 4863 
L 1656 0 
L 538 0 
L 538 4863 
z
" transform="scale(0.015625)"/>
       <path id="DejaVuSans-Bold-75" d="M 500 1363 
L 500 3500 
L 1625 3500 
L 1625 3150 
Q 1625 2866 1622 2436 
Q 1619 2006 1619 1863 
Q 1619 1441 1641 1255 
Q 1663 1069 1716 984 
Q 1784 875 1895 815 
Q 2006 756 2150 756 
Q 2500 756 2700 1025 
Q 2900 1294 2900 1772 
L 2900 3500 
L 4019 3500 
L 4019 0 
L 2900 0 
L 2900 506 
Q 2647 200 2364 54 
Q 2081 -91 1741 -91 
Q 1134 -91 817 281 
Q 500 653 500 1363 
z
" transform="scale(0.015625)"/>
       <path id="DejaVuSans-Bold-6f" d="M 2203 2784 
Q 1831 2784 1636 2517 
Q 1441 2250 1441 1747 
Q 1441 1244 1636 976 
Q 1831 709 2203 709 
Q 2569 709 2762 976 
Q 2956 1244 2956 1747 
Q 2956 2250 2762 2517 
Q 2569 2784 2203 2784 
z
M 2203 3584 
Q 3106 3584 3614 3096 
Q 4122 2609 4122 1747 
Q 4122 884 3614 396 
Q 3106 -91 2203 -91 
Q 1297 -91 786 396 
Q 275 884 275 1747 
Q 275 2609 786 3096 
Q 1297 3584 2203 3584 
z
" transform="scale(0.015625)"/>
       <path id="DejaVuSans-Bold-72" d="M 3138 2547 
Q 2991 2616 2845 2648 
Q 2700 2681 2553 2681 
Q 2122 2681 1889 2404 
Q 1656 2128 1656 1613 
L 1656 0 
L 538 0 
L 538 3500 
L 1656 3500 
L 1656 2925 
Q 1872 3269 2151 3426 
Q 2431 3584 2822 3584 
Q 2878 3584 2943 3579 
Q 3009 3575 3134 3559 
L 3138 2547 
z
" transform="scale(0.015625)"/>
       <path id="DejaVuSans-Bold-73" d="M 3272 3391 
L 3272 2541 
Q 2913 2691 2578 2766 
Q 2244 2841 1947 2841 
Q 1628 2841 1473 2761 
Q 1319 2681 1319 2516 
Q 1319 2381 1436 2309 
Q 1553 2238 1856 2203 
L 2053 2175 
Q 2913 2066 3209 1816 
Q 3506 1566 3506 1031 
Q 3506 472 3093 190 
Q 2681 -91 1863 -91 
Q 1516 -91 1145 -36 
Q 775 19 384 128 
L 384 978 
Q 719 816 1070 734 
Q 1422 653 1784 653 
Q 2113 653 2278 743 
Q 2444 834 2444 1013 
Q 2444 1163 2330 1236 
Q 2216 1309 1875 1350 
L 1678 1375 
Q 931 1469 631 1722 
Q 331 1975 331 2491 
Q 331 3047 712 3315 
Q 1094 3584 1881 3584 
Q 2191 3584 2531 3537 
Q 2872 3491 3272 3391 
z
" transform="scale(0.015625)"/>
       <path id="DejaVuSans-Bold-63" d="M 3366 3391 
L 3366 2478 
Q 3138 2634 2908 2709 
Q 2678 2784 2431 2784 
Q 1963 2784 1702 2511 
Q 1441 2238 1441 1747 
Q 1441 1256 1702 982 
Q 1963 709 2431 709 
Q 2694 709 2930 787 
Q 3166 866 3366 1019 
L 3366 103 
Q 3103 6 2833 -42 
Q 2563 -91 2291 -91 
Q 1344 -91 809 395 
Q 275 881 275 1747 
Q 275 2613 809 3098 
Q 1344 3584 2291 3584 
Q 2566 3584 2833 3536 
Q 3100 3488 3366 3391 
z
" transform="scale(0.015625)"/>
       <path id="DejaVuSans-Bold-6e" d="M 4056 2131 
L 4056 0 
L 2931 0 
L 2931 347 
L 2931 1631 
Q 2931 2084 2911 2256 
Q 2891 2428 2841 2509 
Q 2775 2619 2662 2680 
Q 2550 2741 2406 2741 
Q 2056 2741 1856 2470 
Q 1656 2200 1656 1722 
L 1656 0 
L 538 0 
L 538 3500 
L 1656 3500 
L 1656 2988 
Q 1909 3294 2193 3439 
Q 2478 3584 2822 3584 
Q 3428 3584 3742 3212 
Q 4056 2841 4056 2131 
z
" transform="scale(0.015625)"/>
       <path id="DejaVuSans-Bold-28" d="M 2413 -844 
L 1484 -844 
Q 1006 -72 778 623 
Q 550 1319 550 2003 
Q 550 2688 779 3389 
Q 1009 4091 1484 4856 
L 2413 4856 
Q 2013 4116 1813 3408 
Q 1613 2700 1613 2009 
Q 1613 1319 1811 609 
Q 2009 -100 2413 -844 
z
" transform="scale(0.015625)"/>
       <path id="DejaVuSans-Bold-55" d="M 588 4666 
L 1791 4666 
L 1791 1869 
Q 1791 1291 1980 1042 
Q 2169 794 2597 794 
Q 3028 794 3217 1042 
Q 3406 1291 3406 1869 
L 3406 4666 
L 4609 4666 
L 4609 1869 
Q 4609 878 4112 393 
Q 3616 -91 2597 -91 
Q 1581 -91 1084 393 
Q 588 878 588 1869 
L 588 4666 
z
" transform="scale(0.015625)"/>
       <path id="DejaVuSans-Bold-29" d="M 513 -844 
Q 913 -100 1113 609 
Q 1313 1319 1313 2009 
Q 1313 2700 1113 3408 
Q 913 4116 513 4856 
L 1441 4856 
Q 1916 4091 2145 3389 
Q 2375 2688 2375 2003 
Q 2375 1319 2147 623 
Q 1919 -72 1441 -844 
L 513 -844 
z
" transform="scale(0.015625)"/>
      </defs>
      <use xlink:href="#DejaVuSans-Bold-52"/>
      <use xlink:href="#DejaVuSans-Bold-65" x="77.001953"/>
      <use xlink:href="#DejaVuSans-Bold-64" x="144.824219"/>
      <use xlink:href="#DejaVuSans-Bold-20" x="216.40625"/>
      <use xlink:href="#DejaVuSans-Bold-46" x="251.220703"/>
      <use xlink:href="#DejaVuSans-Bold-6c" x="319.53125"/>
      <use xlink:href="#DejaVuSans-Bold-75" x="353.808594"/>
      <use xlink:href="#DejaVuSans-Bold-6f" x="425"/>
      <use xlink:href="#DejaVuSans-Bold-72" x="493.701172"/>
      <use xlink:href="#DejaVuSans-Bold-65" x="543.017578"/>
      <use xlink:href="#DejaVuSans-Bold-73" x="610.839844"/>
      <use xlink:href="#DejaVuSans-Bold-63" x="670.361328"/>
      <use xlink:href="#DejaVuSans-Bold-65" x="729.638672"/>
      <use xlink:href="#DejaVuSans-Bold-6e" x="797.460938"/>
      <use xlink:href="#DejaVuSans-Bold-63" x="868.652344"/>
      <use xlink:href="#DejaVuSans-Bold-65" x="927.929688"/>
      <use xlink:href="#DejaVuSans-Bold-20" x="995.751953"/>
      <use xlink:href="#DejaVuSans-Bold-28" x="1030.566406"/>
      <use xlink:href="#DejaVuSans-Bold-52" x="1076.269531"/>
      <use xlink:href="#DejaVuSans-Bold-46" x="1153.271484"/>
      <use xlink:href="#DejaVuSans-Bold-55" x="1221.582031"/>
      <use xlink:href="#DejaVuSans-Bold-29" x="1302.783203"/>
     </g>
    </g>
   </g>
   <g id="matplotlib.axis_2">
    <g id="ytick_1">
     <g id="line2d_8">
      <defs>
       <path id="mf093c6e9cf" d="M 0 0 
L -3.5 0 
" style="stroke: #000000; stroke-width: 0.8"/>
      </defs>
      <g>
       <use xlink:href="#mf093c6e9cf" x="52.925" y="316.7" style="stroke: #000000; stroke-width: 0.8"/>
      </g>
     </g>
     <g id="text_9">
      <!-- 0 -->
      <g transform="translate(39.5625 320.499219) scale(0.1 -0.1)">
       <use xlink:href="#DejaVuSans-30"/>
      </g>
     </g>
    </g>
    <g id="ytick_2">
     <g id="line2d_9">
      <g>
       <use xlink:href="#mf093c6e9cf" x="52.925" y="281.607593" style="stroke: #000000; stroke-width: 0.8"/>
      </g>
     </g>
     <g id="text_10">
      <!-- 50 -->
      <g transform="translate(33.2 285.406811) scale(0.1 -0.1)">
       <defs>
        <path id="DejaVuSans-35" d="M 691 4666 
L 3169 4666 
L 3169 4134 
L 1269 4134 
L 1269 2991 
Q 1406 3038 1543 3061 
Q 1681 3084 1819 3084 
Q 2600 3084 3056 2656 
Q 3513 2228 3513 1497 
Q 3513 744 3044 326 
Q 2575 -91 1722 -91 
Q 1428 -91 1123 -41 
Q 819 9 494 109 
L 494 744 
Q 775 591 1075 516 
Q 1375 441 1709 441 
Q 2250 441 2565 725 
Q 2881 1009 2881 1497 
Q 2881 1984 2565 2268 
Q 2250 2553 1709 2553 
Q 1456 2553 1204 2497 
Q 953 2441 691 2322 
L 691 4666 
z
" transform="scale(0.015625)"/>
       </defs>
       <use xlink:href="#DejaVuSans-35"/>
       <use xlink:href="#DejaVuSans-30" x="63.623047"/>
      </g>
     </g>
    </g>
    <g id="ytick_3">
     <g id="line2d_10">
      <g>
       <use xlink:href="#mf093c6e9cf" x="52.925" y="246.515185" style="stroke: #000000; stroke-width: 0.8"/>
      </g>
     </g>
     <g id="text_11">
      <!-- 100 -->
      <g transform="translate(26.8375 250.314404) scale(0.1 -0.1)">
       <use xlink:href="#DejaVuSans-31"/>
       <use xlink:href="#DejaVuSans-30" x="63.623047"/>
       <use xlink:href="#DejaVuSans-30" x="127.246094"/>
      </g>
     </g>
    </g>
    <g id="ytick_4">
     <g id="line2d_11">
      <g>
       <use xlink:href="#mf093c6e9cf" x="52.925" y="211.422778" style="stroke: #000000; stroke-width: 0.8"/>
      </g>
     </g>
     <g id="text_12">
      <!-- 150 -->
      <g transform="translate(26.8375 215.221997) scale(0.1 -0.1)">
       <use xlink:href="#DejaVuSans-31"/>
       <use xlink:href="#DejaVuSans-35" x="63.623047"/>
       <use xlink:href="#DejaVuSans-30" x="127.246094"/>
      </g>
     </g>
    </g>
    <g id="ytick_5">
     <g id="line2d_12">
      <g>
       <use xlink:href="#mf093c6e9cf" x="52.925" y="176.330371" style="stroke: #000000; stroke-width: 0.8"/>
      </g>
     </g>
     <g id="text_13">
      <!-- 200 -->
      <g transform="translate(26.8375 180.129589) scale(0.1 -0.1)">
       <use xlink:href="#DejaVuSans-32"/>
       <use xlink:href="#DejaVuSans-30" x="63.623047"/>
       <use xlink:href="#DejaVuSans-30" x="127.246094"/>
      </g>
     </g>
    </g>
    <g id="ytick_6">
     <g id="line2d_13">
      <g>
       <use xlink:href="#mf093c6e9cf" x="52.925" y="141.237963" style="stroke: #000000; stroke-width: 0.8"/>
      </g>
     </g>
     <g id="text_14">
      <!-- 250 -->
      <g transform="translate(26.8375 145.037182) scale(0.1 -0.1)">
       <use xlink:href="#DejaVuSans-32"/>
       <use xlink:href="#DejaVuSans-35" x="63.623047"/>
       <use xlink:href="#DejaVuSans-30" x="127.246094"/>
      </g>
     </g>
    </g>
    <g id="ytick_7">
     <g id="line2d_14">
      <g>
       <use xlink:href="#mf093c6e9cf" x="52.925" y="106.145556" style="stroke: #000000; stroke-width: 0.8"/>
      </g>
     </g>
     <g id="text_15">
      <!-- 300 -->
      <g transform="translate(26.8375 109.944775) scale(0.1 -0.1)">
       <defs>
        <path id="DejaVuSans-33" d="M 2597 2516 
Q 3050 2419 3304 2112 
Q 3559 1806 3559 1356 
Q 3559 666 3084 287 
Q 2609 -91 1734 -91 
Q 1441 -91 1130 -33 
Q 819 25 488 141 
L 488 750 
Q 750 597 1062 519 
Q 1375 441 1716 441 
Q 2309 441 2620 675 
Q 2931 909 2931 1356 
Q 2931 1769 2642 2001 
Q 2353 2234 1838 2234 
L 1294 2234 
L 1294 2753 
L 1863 2753 
Q 2328 2753 2575 2939 
Q 2822 3125 2822 3475 
Q 2822 3834 2567 4026 
Q 2313 4219 1838 4219 
Q 1578 4219 1281 4162 
Q 984 4106 628 3988 
L 628 4550 
Q 988 4650 1302 4700 
Q 1616 4750 1894 4750 
Q 2613 4750 3031 4423 
Q 3450 4097 3450 3541 
Q 3450 3153 3228 2886 
Q 3006 2619 2597 2516 
z
" transform="scale(0.015625)"/>
       </defs>
       <use xlink:href="#DejaVuSans-33"/>
       <use xlink:href="#DejaVuSans-30" x="63.623047"/>
       <use xlink:href="#DejaVuSans-30" x="127.246094"/>
      </g>
     </g>
    </g>
    <g id="ytick_8">
     <g id="line2d_15">
      <g>
       <use xlink:href="#mf093c6e9cf" x="52.925" y="71.053149" style="stroke: #000000; stroke-width: 0.8"/>
      </g>
     </g>
     <g id="text_16">
      <!-- 350 -->
      <g transform="translate(26.8375 74.852367) scale(0.1 -0.1)">
       <use xlink:href="#DejaVuSans-33"/>
       <use xlink:href="#DejaVuSans-35" x="63.623047"/>
       <use xlink:href="#DejaVuSans-30" x="127.246094"/>
      </g>
     </g>
    </g>
    <g id="text_17">
     <!-- Count -->
     <g transform="translate(20.341875 203.835938) rotate(-90) scale(0.12 -0.12)">
      <defs>
       <path id="DejaVuSans-Bold-43" d="M 4288 256 
Q 3956 84 3597 -3 
Q 3238 -91 2847 -91 
Q 1681 -91 1000 561 
Q 319 1213 319 2328 
Q 319 3447 1000 4098 
Q 1681 4750 2847 4750 
Q 3238 4750 3597 4662 
Q 3956 4575 4288 4403 
L 4288 3438 
Q 3953 3666 3628 3772 
Q 3303 3878 2944 3878 
Q 2300 3878 1931 3465 
Q 1563 3053 1563 2328 
Q 1563 1606 1931 1193 
Q 2300 781 2944 781 
Q 3303 781 3628 887 
Q 3953 994 4288 1222 
L 4288 256 
z
" transform="scale(0.015625)"/>
       <path id="DejaVuSans-Bold-74" d="M 1759 4494 
L 1759 3500 
L 2913 3500 
L 2913 2700 
L 1759 2700 
L 1759 1216 
Q 1759 972 1856 886 
Q 1953 800 2241 800 
L 2816 800 
L 2816 0 
L 1856 0 
Q 1194 0 917 276 
Q 641 553 641 1216 
L 641 2700 
L 84 2700 
L 84 3500 
L 641 3500 
L 641 4494 
L 1759 4494 
z
" transform="scale(0.015625)"/>
      </defs>
      <use xlink:href="#DejaVuSans-Bold-43"/>
      <use xlink:href="#DejaVuSans-Bold-6f" x="73.388672"/>
      <use xlink:href="#DejaVuSans-Bold-75" x="142.089844"/>
      <use xlink:href="#DejaVuSans-Bold-6e" x="213.28125"/>
      <use xlink:href="#DejaVuSans-Bold-74" x="284.472656"/>
     </g>
    </g>
   </g>
   <g id="line2d_16">
    <path d="M 66.6375 315.314553 
L 68.015641 315.378172 
L 70.771922 315.713151 
L 72.150063 315.746453 
L 77.662626 315.351487 
L 81.797048 315.977877 
L 83.175188 315.945705 
L 84.553329 315.627463 
L 85.93147 315.034954 
L 88.687751 313.570113 
L 90.065892 313.085222 
L 91.444033 312.911824 
L 94.200314 313.011539 
L 95.578455 312.789881 
L 96.956595 312.106213 
L 98.334736 310.919242 
L 99.712877 309.339342 
L 102.469158 305.828612 
L 103.847299 304.31395 
L 105.22544 303.152607 
L 106.60358 302.341479 
L 107.981721 301.670223 
L 109.359862 300.70754 
L 110.738003 298.896877 
L 112.116143 295.705304 
L 113.494284 290.720365 
L 114.872425 283.675653 
L 116.250565 274.482571 
L 117.628706 263.291427 
L 119.006847 250.487579 
L 124.51941 194.8484 
L 125.89755 184.02789 
L 127.275691 175.633223 
L 128.653832 168.424067 
L 130.031972 160.033556 
L 131.410113 148.353169 
L 132.788254 132.976514 
L 135.544535 98.354595 
L 136.922676 83.675825 
L 138.300817 72.610419 
L 139.678957 65.799663 
L 141.057098 63.747619 
L 142.435239 66.738922 
L 143.813379 74.65013 
L 145.19152 87.088132 
L 146.569661 103.64612 
L 147.947802 123.799912 
L 152.082224 191.655192 
L 153.460364 210.342856 
L 154.838505 225.48796 
L 156.216646 237.98231 
L 161.729209 283.482511 
L 163.107349 293.465237 
L 164.48549 301.536464 
L 165.863631 307.496497 
L 167.241771 311.533553 
L 168.619912 314.040038 
L 169.998053 315.456716 
L 171.376193 316.177906 
L 172.754334 316.504867 
L 175.510616 316.68134 
L 187.913882 316.7 
L 340.8875 316.7 
L 340.8875 316.7 
" clip-path="url(#p7619d9bcb1)" style="fill: none; stroke: #ff7f0e; stroke-width: 1.5; stroke-linecap: square"/>
   </g>
   <g id="line2d_17">
    <path d="M 66.6375 316.7 
L 149.325942 316.607539 
L 157.594786 316.354128 
L 163.107349 316.018005 
L 167.241771 315.607389 
L 171.376193 314.939465 
L 174.132475 314.259961 
L 176.888756 313.307562 
L 179.645038 311.994991 
L 182.401319 310.224706 
L 183.77946 309.134734 
L 185.157601 307.889102 
L 186.535741 306.472401 
L 187.913882 304.86819 
L 189.292023 303.058883 
L 190.670163 301.025734 
L 192.048304 298.74899 
L 193.426445 296.208301 
L 194.804585 293.38349 
L 196.182726 290.255724 
L 197.560867 286.809136 
L 198.939008 283.032873 
L 201.695289 274.487267 
L 204.45157 264.723936 
L 208.585992 248.587333 
L 211.342274 237.765594 
L 214.098555 227.872575 
L 215.476696 223.552993 
L 216.854837 219.787974 
L 218.232977 216.663614 
L 219.611118 214.247967 
L 220.989259 212.588233 
L 222.367399 211.709276 
L 223.74554 211.613508 
L 225.123681 212.281996 
L 226.501822 213.676579 
L 227.879962 215.742667 
L 229.258103 218.412399 
L 230.636244 221.607846 
L 232.014384 225.244031 
L 234.770666 233.479149 
L 241.661369 255.50877 
L 244.417651 263.237379 
L 245.795791 266.635818 
L 247.173932 269.682508 
L 248.552073 272.365018 
L 249.930214 274.685731 
L 251.308354 276.660808 
L 252.686495 278.318224 
L 254.064636 279.694998 
L 255.442776 280.833888 
L 256.820917 281.779873 
L 259.577198 283.264626 
L 262.33348 284.442031 
L 273.358606 288.814721 
L 276.114887 290.181172 
L 278.871168 291.787145 
L 283.00559 294.597698 
L 287.140013 297.455634 
L 289.896294 299.016557 
L 291.274435 299.615768 
L 292.652575 300.072047 
L 294.030716 300.378557 
L 295.408857 300.536751 
L 296.786997 300.555885 
L 299.543279 300.245721 
L 302.29956 299.625043 
L 307.812123 298.227523 
L 310.568405 297.754364 
L 313.324686 297.552427 
L 316.080967 297.660463 
L 318.837249 298.089207 
L 321.59353 298.828896 
L 324.349812 299.853635 
L 327.106093 301.125355 
L 329.862374 302.59821 
L 333.996796 305.073311 
L 340.8875 309.418991 
L 340.8875 309.418991 
" clip-path="url(#p7619d9bcb1)" style="fill: none; stroke: #1f77b4; stroke-width: 1.5; stroke-linecap: square"/>
   </g>
   <g id="patch_35">
    <path d="M 52.925 316.7 
L 52.925 51.1 
" style="fill: none; stroke: #000000; stroke-width: 0.8; stroke-linejoin: miter; stroke-linecap: square"/>
   </g>
   <g id="patch_36">
    <path d="M 354.6 316.7 
L 354.6 51.1 
" style="fill: none; stroke: #000000; stroke-width: 0.8; stroke-linejoin: miter; stroke-linecap: square"/>
   </g>
   <g id="patch_37">
    <path d="M 52.925 316.7 
L 354.6 316.7 
" style="fill: none; stroke: #000000; stroke-width: 0.8; stroke-linejoin: miter; stroke-linecap: square"/>
   </g>
   <g id="patch_38">
    <path d="M 52.925 51.1 
L 354.6 51.1 
" style="fill: none; stroke: #000000; stroke-width: 0.8; stroke-linejoin: miter; stroke-linecap: square"/>
   </g>
   <g id="text_18">
    <!-- t-stat: 67.789 | p-value: 0.000e+00 | KDE FC: 0.457 -->
    <g transform="translate(48.4825 45.1) scale(0.12 -0.12)">
     <defs>
      <path id="DejaVuSans-74" d="M 1172 4494 
L 1172 3500 
L 2356 3500 
L 2356 3053 
L 1172 3053 
L 1172 1153 
Q 1172 725 1289 603 
Q 1406 481 1766 481 
L 2356 481 
L 2356 0 
L 1766 0 
Q 1100 0 847 248 
Q 594 497 594 1153 
L 594 3053 
L 172 3053 
L 172 3500 
L 594 3500 
L 594 4494 
L 1172 4494 
z
" transform="scale(0.015625)"/>
      <path id="DejaVuSans-2d" d="M 313 2009 
L 1997 2009 
L 1997 1497 
L 313 1497 
L 313 2009 
z
" transform="scale(0.015625)"/>
      <path id="DejaVuSans-73" d="M 2834 3397 
L 2834 2853 
Q 2591 2978 2328 3040 
Q 2066 3103 1784 3103 
Q 1356 3103 1142 2972 
Q 928 2841 928 2578 
Q 928 2378 1081 2264 
Q 1234 2150 1697 2047 
L 1894 2003 
Q 2506 1872 2764 1633 
Q 3022 1394 3022 966 
Q 3022 478 2636 193 
Q 2250 -91 1575 -91 
Q 1294 -91 989 -36 
Q 684 19 347 128 
L 347 722 
Q 666 556 975 473 
Q 1284 391 1588 391 
Q 1994 391 2212 530 
Q 2431 669 2431 922 
Q 2431 1156 2273 1281 
Q 2116 1406 1581 1522 
L 1381 1569 
Q 847 1681 609 1914 
Q 372 2147 372 2553 
Q 372 3047 722 3315 
Q 1072 3584 1716 3584 
Q 2034 3584 2315 3537 
Q 2597 3491 2834 3397 
z
" transform="scale(0.015625)"/>
      <path id="DejaVuSans-61" d="M 2194 1759 
Q 1497 1759 1228 1600 
Q 959 1441 959 1056 
Q 959 750 1161 570 
Q 1363 391 1709 391 
Q 2188 391 2477 730 
Q 2766 1069 2766 1631 
L 2766 1759 
L 2194 1759 
z
M 3341 1997 
L 3341 0 
L 2766 0 
L 2766 531 
Q 2569 213 2275 61 
Q 1981 -91 1556 -91 
Q 1019 -91 701 211 
Q 384 513 384 1019 
Q 384 1609 779 1909 
Q 1175 2209 1959 2209 
L 2766 2209 
L 2766 2266 
Q 2766 2663 2505 2880 
Q 2244 3097 1772 3097 
Q 1472 3097 1187 3025 
Q 903 2953 641 2809 
L 641 3341 
Q 956 3463 1253 3523 
Q 1550 3584 1831 3584 
Q 2591 3584 2966 3190 
Q 3341 2797 3341 1997 
z
" transform="scale(0.015625)"/>
      <path id="DejaVuSans-3a" d="M 750 794 
L 1409 794 
L 1409 0 
L 750 0 
L 750 794 
z
M 750 3309 
L 1409 3309 
L 1409 2516 
L 750 2516 
L 750 3309 
z
" transform="scale(0.015625)"/>
      <path id="DejaVuSans-20" transform="scale(0.015625)"/>
      <path id="DejaVuSans-37" d="M 525 4666 
L 3525 4666 
L 3525 4397 
L 1831 0 
L 1172 0 
L 2766 4134 
L 525 4134 
L 525 4666 
z
" transform="scale(0.015625)"/>
      <path id="DejaVuSans-2e" d="M 684 794 
L 1344 794 
L 1344 0 
L 684 0 
L 684 794 
z
" transform="scale(0.015625)"/>
      <path id="DejaVuSans-39" d="M 703 97 
L 703 672 
Q 941 559 1184 500 
Q 1428 441 1663 441 
Q 2288 441 2617 861 
Q 2947 1281 2994 2138 
Q 2813 1869 2534 1725 
Q 2256 1581 1919 1581 
Q 1219 1581 811 2004 
Q 403 2428 403 3163 
Q 403 3881 828 4315 
Q 1253 4750 1959 4750 
Q 2769 4750 3195 4129 
Q 3622 3509 3622 2328 
Q 3622 1225 3098 567 
Q 2575 -91 1691 -91 
Q 1453 -91 1209 -44 
Q 966 3 703 97 
z
M 1959 2075 
Q 2384 2075 2632 2365 
Q 2881 2656 2881 3163 
Q 2881 3666 2632 3958 
Q 2384 4250 1959 4250 
Q 1534 4250 1286 3958 
Q 1038 3666 1038 3163 
Q 1038 2656 1286 2365 
Q 1534 2075 1959 2075 
z
" transform="scale(0.015625)"/>
      <path id="DejaVuSans-7c" d="M 1344 4891 
L 1344 -1509 
L 813 -1509 
L 813 4891 
L 1344 4891 
z
" transform="scale(0.015625)"/>
      <path id="DejaVuSans-70" d="M 1159 525 
L 1159 -1331 
L 581 -1331 
L 581 3500 
L 1159 3500 
L 1159 2969 
Q 1341 3281 1617 3432 
Q 1894 3584 2278 3584 
Q 2916 3584 3314 3078 
Q 3713 2572 3713 1747 
Q 3713 922 3314 415 
Q 2916 -91 2278 -91 
Q 1894 -91 1617 61 
Q 1341 213 1159 525 
z
M 3116 1747 
Q 3116 2381 2855 2742 
Q 2594 3103 2138 3103 
Q 1681 3103 1420 2742 
Q 1159 2381 1159 1747 
Q 1159 1113 1420 752 
Q 1681 391 2138 391 
Q 2594 391 2855 752 
Q 3116 1113 3116 1747 
z
" transform="scale(0.015625)"/>
      <path id="DejaVuSans-76" d="M 191 3500 
L 800 3500 
L 1894 563 
L 2988 3500 
L 3597 3500 
L 2284 0 
L 1503 0 
L 191 3500 
z
" transform="scale(0.015625)"/>
      <path id="DejaVuSans-6c" d="M 603 4863 
L 1178 4863 
L 1178 0 
L 603 0 
L 603 4863 
z
" transform="scale(0.015625)"/>
      <path id="DejaVuSans-75" d="M 544 1381 
L 544 3500 
L 1119 3500 
L 1119 1403 
Q 1119 906 1312 657 
Q 1506 409 1894 409 
Q 2359 409 2629 706 
Q 2900 1003 2900 1516 
L 2900 3500 
L 3475 3500 
L 3475 0 
L 2900 0 
L 2900 538 
Q 2691 219 2414 64 
Q 2138 -91 1772 -91 
Q 1169 -91 856 284 
Q 544 659 544 1381 
z
M 1991 3584 
L 1991 3584 
z
" transform="scale(0.015625)"/>
      <path id="DejaVuSans-65" d="M 3597 1894 
L 3597 1613 
L 953 1613 
Q 991 1019 1311 708 
Q 1631 397 2203 397 
Q 2534 397 2845 478 
Q 3156 559 3463 722 
L 3463 178 
Q 3153 47 2828 -22 
Q 2503 -91 2169 -91 
Q 1331 -91 842 396 
Q 353 884 353 1716 
Q 353 2575 817 3079 
Q 1281 3584 2069 3584 
Q 2775 3584 3186 3129 
Q 3597 2675 3597 1894 
z
M 3022 2063 
Q 3016 2534 2758 2815 
Q 2500 3097 2075 3097 
Q 1594 3097 1305 2825 
Q 1016 2553 972 2059 
L 3022 2063 
z
" transform="scale(0.015625)"/>
      <path id="DejaVuSans-2b" d="M 2944 4013 
L 2944 2272 
L 4684 2272 
L 4684 1741 
L 2944 1741 
L 2944 0 
L 2419 0 
L 2419 1741 
L 678 1741 
L 678 2272 
L 2419 2272 
L 2419 4013 
L 2944 4013 
z
" transform="scale(0.015625)"/>
      <path id="DejaVuSans-4b" d="M 628 4666 
L 1259 4666 
L 1259 2694 
L 3353 4666 
L 4166 4666 
L 1850 2491 
L 4331 0 
L 3500 0 
L 1259 2247 
L 1259 0 
L 628 0 
L 628 4666 
z
" transform="scale(0.015625)"/>
      <path id="DejaVuSans-44" d="M 1259 4147 
L 1259 519 
L 2022 519 
Q 2988 519 3436 956 
Q 3884 1394 3884 2338 
Q 3884 3275 3436 3711 
Q 2988 4147 2022 4147 
L 1259 4147 
z
M 628 4666 
L 1925 4666 
Q 3281 4666 3915 4102 
Q 4550 3538 4550 2338 
Q 4550 1131 3912 565 
Q 3275 0 1925 0 
L 628 0 
L 628 4666 
z
" transform="scale(0.015625)"/>
      <path id="DejaVuSans-45" d="M 628 4666 
L 3578 4666 
L 3578 4134 
L 1259 4134 
L 1259 2753 
L 3481 2753 
L 3481 2222 
L 1259 2222 
L 1259 531 
L 3634 531 
L 3634 0 
L 628 0 
L 628 4666 
z
" transform="scale(0.015625)"/>
      <path id="DejaVuSans-46" d="M 628 4666 
L 3309 4666 
L 3309 4134 
L 1259 4134 
L 1259 2759 
L 3109 2759 
L 3109 2228 
L 1259 2228 
L 1259 0 
L 628 0 
L 628 4666 
z
" transform="scale(0.015625)"/>
      <path id="DejaVuSans-43" d="M 4122 4306 
L 4122 3641 
Q 3803 3938 3442 4084 
Q 3081 4231 2675 4231 
Q 1875 4231 1450 3742 
Q 1025 3253 1025 2328 
Q 1025 1406 1450 917 
Q 1875 428 2675 428 
Q 3081 428 3442 575 
Q 3803 722 4122 1019 
L 4122 359 
Q 3791 134 3420 21 
Q 3050 -91 2638 -91 
Q 1578 -91 968 557 
Q 359 1206 359 2328 
Q 359 3453 968 4101 
Q 1578 4750 2638 4750 
Q 3056 4750 3426 4639 
Q 3797 4528 4122 4306 
z
" transform="scale(0.015625)"/>
     </defs>
     <use xlink:href="#DejaVuSans-74"/>
     <use xlink:href="#DejaVuSans-2d" x="39.208984"/>
     <use xlink:href="#DejaVuSans-73" x="75.292969"/>
     <use xlink:href="#DejaVuSans-74" x="127.392578"/>
     <use xlink:href="#DejaVuSans-61" x="166.601562"/>
     <use xlink:href="#DejaVuSans-74" x="227.880859"/>
     <use xlink:href="#DejaVuSans-3a" x="267.089844"/>
     <use xlink:href="#DejaVuSans-20" x="300.78125"/>
     <use xlink:href="#DejaVuSans-36" x="332.568359"/>
     <use xlink:href="#DejaVuSans-37" x="396.191406"/>
     <use xlink:href="#DejaVuSans-2e" x="459.814453"/>
     <use xlink:href="#DejaVuSans-37" x="491.601562"/>
     <use xlink:href="#DejaVuSans-38" x="555.224609"/>
     <use xlink:href="#DejaVuSans-39" x="618.847656"/>
     <use xlink:href="#DejaVuSans-20" x="682.470703"/>
     <use xlink:href="#DejaVuSans-7c" x="714.257812"/>
     <use xlink:href="#DejaVuSans-20" x="747.949219"/>
     <use xlink:href="#DejaVuSans-70" x="779.736328"/>
     <use xlink:href="#DejaVuSans-2d" x="843.212891"/>
     <use xlink:href="#DejaVuSans-76" x="876.671875"/>
     <use xlink:href="#DejaVuSans-61" x="935.851562"/>
     <use xlink:href="#DejaVuSans-6c" x="997.130859"/>
     <use xlink:href="#DejaVuSans-75" x="1024.914062"/>
     <use xlink:href="#DejaVuSans-65" x="1088.292969"/>
     <use xlink:href="#DejaVuSans-3a" x="1149.816406"/>
     <use xlink:href="#DejaVuSans-20" x="1183.507812"/>
     <use xlink:href="#DejaVuSans-30" x="1215.294922"/>
     <use xlink:href="#DejaVuSans-2e" x="1278.917969"/>
     <use xlink:href="#DejaVuSans-30" x="1310.705078"/>
     <use xlink:href="#DejaVuSans-30" x="1374.328125"/>
     <use xlink:href="#DejaVuSans-30" x="1437.951172"/>
     <use xlink:href="#DejaVuSans-65" x="1501.574219"/>
     <use xlink:href="#DejaVuSans-2b" x="1563.097656"/>
     <use xlink:href="#DejaVuSans-30" x="1646.886719"/>
     <use xlink:href="#DejaVuSans-30" x="1710.509766"/>
     <use xlink:href="#DejaVuSans-20" x="1774.132812"/>
     <use xlink:href="#DejaVuSans-7c" x="1805.919922"/>
     <use xlink:href="#DejaVuSans-20" x="1839.611328"/>
     <use xlink:href="#DejaVuSans-4b" x="1871.398438"/>
     <use xlink:href="#DejaVuSans-44" x="1936.974609"/>
     <use xlink:href="#DejaVuSans-45" x="2013.976562"/>
     <use xlink:href="#DejaVuSans-20" x="2077.160156"/>
     <use xlink:href="#DejaVuSans-46" x="2108.947266"/>
     <use xlink:href="#DejaVuSans-43" x="2166.466797"/>
     <use xlink:href="#DejaVuSans-3a" x="2236.291016"/>
     <use xlink:href="#DejaVuSans-20" x="2269.982422"/>
     <use xlink:href="#DejaVuSans-30" x="2301.769531"/>
     <use xlink:href="#DejaVuSans-2e" x="2365.392578"/>
     <use xlink:href="#DejaVuSans-34" x="2397.179688"/>
     <use xlink:href="#DejaVuSans-35" x="2460.802734"/>
     <use xlink:href="#DejaVuSans-37" x="2524.425781"/>
    </g>
   </g>
   <g id="legend_1">
    <g id="patch_39">
     <path d="M 271.414062 103.134375 
L 347.6 103.134375 
Q 349.6 103.134375 349.6 101.134375 
L 349.6 58.1 
Q 349.6 56.1 347.6 56.1 
L 271.414062 56.1 
Q 269.414062 56.1 269.414062 58.1 
L 269.414062 101.134375 
Q 269.414062 103.134375 271.414062 103.134375 
z
" style="fill: #ffffff; opacity: 0.8; stroke: #cccccc; stroke-linejoin: miter"/>
    </g>
    <g id="text_19">
     <!-- Flowrate (G:R) -->
     <g transform="translate(273.414062 67.698438) scale(0.1 -0.1)">
      <defs>
       <path id="DejaVuSans-6f" d="M 1959 3097 
Q 1497 3097 1228 2736 
Q 959 2375 959 1747 
Q 959 1119 1226 758 
Q 1494 397 1959 397 
Q 2419 397 2687 759 
Q 2956 1122 2956 1747 
Q 2956 2369 2687 2733 
Q 2419 3097 1959 3097 
z
M 1959 3584 
Q 2709 3584 3137 3096 
Q 3566 2609 3566 1747 
Q 3566 888 3137 398 
Q 2709 -91 1959 -91 
Q 1206 -91 779 398 
Q 353 888 353 1747 
Q 353 2609 779 3096 
Q 1206 3584 1959 3584 
z
" transform="scale(0.015625)"/>
       <path id="DejaVuSans-77" d="M 269 3500 
L 844 3500 
L 1563 769 
L 2278 3500 
L 2956 3500 
L 3675 769 
L 4391 3500 
L 4966 3500 
L 4050 0 
L 3372 0 
L 2619 2869 
L 1863 0 
L 1184 0 
L 269 3500 
z
" transform="scale(0.015625)"/>
       <path id="DejaVuSans-72" d="M 2631 2963 
Q 2534 3019 2420 3045 
Q 2306 3072 2169 3072 
Q 1681 3072 1420 2755 
Q 1159 2438 1159 1844 
L 1159 0 
L 581 0 
L 581 3500 
L 1159 3500 
L 1159 2956 
Q 1341 3275 1631 3429 
Q 1922 3584 2338 3584 
Q 2397 3584 2469 3576 
Q 2541 3569 2628 3553 
L 2631 2963 
z
" transform="scale(0.015625)"/>
       <path id="DejaVuSans-28" d="M 1984 4856 
Q 1566 4138 1362 3434 
Q 1159 2731 1159 2009 
Q 1159 1288 1364 580 
Q 1569 -128 1984 -844 
L 1484 -844 
Q 1016 -109 783 600 
Q 550 1309 550 2009 
Q 550 2706 781 3412 
Q 1013 4119 1484 4856 
L 1984 4856 
z
" transform="scale(0.015625)"/>
       <path id="DejaVuSans-47" d="M 3809 666 
L 3809 1919 
L 2778 1919 
L 2778 2438 
L 4434 2438 
L 4434 434 
Q 4069 175 3628 42 
Q 3188 -91 2688 -91 
Q 1594 -91 976 548 
Q 359 1188 359 2328 
Q 359 3472 976 4111 
Q 1594 4750 2688 4750 
Q 3144 4750 3555 4637 
Q 3966 4525 4313 4306 
L 4313 3634 
Q 3963 3931 3569 4081 
Q 3175 4231 2741 4231 
Q 1884 4231 1454 3753 
Q 1025 3275 1025 2328 
Q 1025 1384 1454 906 
Q 1884 428 2741 428 
Q 3075 428 3337 486 
Q 3600 544 3809 666 
z
" transform="scale(0.015625)"/>
       <path id="DejaVuSans-52" d="M 2841 2188 
Q 3044 2119 3236 1894 
Q 3428 1669 3622 1275 
L 4263 0 
L 3584 0 
L 2988 1197 
Q 2756 1666 2539 1819 
Q 2322 1972 1947 1972 
L 1259 1972 
L 1259 0 
L 628 0 
L 628 4666 
L 2053 4666 
Q 2853 4666 3247 4331 
Q 3641 3997 3641 3322 
Q 3641 2881 3436 2590 
Q 3231 2300 2841 2188 
z
M 1259 4147 
L 1259 2491 
L 2053 2491 
Q 2509 2491 2742 2702 
Q 2975 2913 2975 3322 
Q 2975 3731 2742 3939 
Q 2509 4147 2053 4147 
L 1259 4147 
z
" transform="scale(0.015625)"/>
       <path id="DejaVuSans-29" d="M 513 4856 
L 1013 4856 
Q 1481 4119 1714 3412 
Q 1947 2706 1947 2009 
Q 1947 1309 1714 600 
Q 1481 -109 1013 -844 
L 513 -844 
Q 928 -128 1133 580 
Q 1338 1288 1338 2009 
Q 1338 2731 1133 3434 
Q 928 4138 513 4856 
z
" transform="scale(0.015625)"/>
      </defs>
      <use xlink:href="#DejaVuSans-46"/>
      <use xlink:href="#DejaVuSans-6c" x="57.519531"/>
      <use xlink:href="#DejaVuSans-6f" x="85.302734"/>
      <use xlink:href="#DejaVuSans-77" x="146.484375"/>
      <use xlink:href="#DejaVuSans-72" x="228.271484"/>
      <use xlink:href="#DejaVuSans-61" x="269.384766"/>
      <use xlink:href="#DejaVuSans-74" x="330.664062"/>
      <use xlink:href="#DejaVuSans-65" x="369.873047"/>
      <use xlink:href="#DejaVuSans-20" x="431.396484"/>
      <use xlink:href="#DejaVuSans-28" x="463.183594"/>
      <use xlink:href="#DejaVuSans-47" x="502.197266"/>
      <use xlink:href="#DejaVuSans-3a" x="579.6875"/>
      <use xlink:href="#DejaVuSans-52" x="613.378906"/>
      <use xlink:href="#DejaVuSans-29" x="682.861328"/>
     </g>
    </g>
    <g id="patch_40">
     <path d="M 281.097656 82.376563 
L 301.097656 82.376563 
L 301.097656 75.376563 
L 281.097656 75.376563 
z
" style="fill: #1f77b4; fill-opacity: 0.5; stroke: #000000; stroke-linejoin: miter"/>
    </g>
    <g id="text_20">
     <!-- 20:20 -->
     <g transform="translate(309.097656 82.376563) scale(0.1 -0.1)">
      <use xlink:href="#DejaVuSans-32"/>
      <use xlink:href="#DejaVuSans-30" x="63.623047"/>
      <use xlink:href="#DejaVuSans-3a" x="127.246094"/>
      <use xlink:href="#DejaVuSans-32" x="160.9375"/>
      <use xlink:href="#DejaVuSans-30" x="224.560547"/>
     </g>
    </g>
    <g id="patch_41">
     <path d="M 281.097656 97.054688 
L 301.097656 97.054688 
L 301.097656 90.054688 
L 281.097656 90.054688 
z
" style="fill: #ff7f0e; fill-opacity: 0.5; stroke: #000000; stroke-linejoin: miter"/>
    </g>
    <g id="text_21">
     <!-- 30:10 -->
     <g transform="translate(309.097656 97.054688) scale(0.1 -0.1)">
      <use xlink:href="#DejaVuSans-33"/>
      <use xlink:href="#DejaVuSans-30" x="63.623047"/>
      <use xlink:href="#DejaVuSans-3a" x="127.246094"/>
      <use xlink:href="#DejaVuSans-31" x="160.9375"/>
      <use xlink:href="#DejaVuSans-30" x="224.560547"/>
     </g>
    </g>
   </g>
  </g>
  <g id="axes_2">
   <g id="patch_42">
    <path d="M 407.525 316.7 
L 709.2 316.7 
L 709.2 51.1 
L 407.525 51.1 
z
" style="fill: #ffffff"/>
   </g>
   <g id="patch_43">
    <path d="M 421.2375 316.7 
L 543.126389 316.7 
L 543.126389 99.922044 
L 421.2375 99.922044 
z
" clip-path="url(#p07a60d64b5)" style="fill: #3274a1; opacity: 0.8"/>
   </g>
   <g id="patch_44">
    <path d="M 573.598611 316.7 
L 695.4875 316.7 
L 695.4875 221.074792 
L 573.598611 221.074792 
z
" clip-path="url(#p07a60d64b5)" style="fill: #e1812c; opacity: 0.8"/>
   </g>
   <g id="matplotlib.axis_3">
    <g id="xtick_8">
     <g id="line2d_18">
      <g>
       <use xlink:href="#m13f940b191" x="482.181944" y="316.7" style="stroke: #000000; stroke-width: 0.8"/>
      </g>
     </g>
     <g id="text_22">
      <!-- 20:20 -->
      <g transform="translate(467.772569 331.298437) scale(0.1 -0.1)">
       <use xlink:href="#DejaVuSans-32"/>
       <use xlink:href="#DejaVuSans-30" x="63.623047"/>
       <use xlink:href="#DejaVuSans-3a" x="127.246094"/>
       <use xlink:href="#DejaVuSans-32" x="160.9375"/>
       <use xlink:href="#DejaVuSans-30" x="224.560547"/>
      </g>
     </g>
    </g>
    <g id="xtick_9">
     <g id="line2d_19">
      <g>
       <use xlink:href="#m13f940b191" x="634.543056" y="316.7" style="stroke: #000000; stroke-width: 0.8"/>
      </g>
     </g>
     <g id="text_23">
      <!-- 30:10 -->
      <g transform="translate(620.133681 331.298437) scale(0.1 -0.1)">
       <use xlink:href="#DejaVuSans-33"/>
       <use xlink:href="#DejaVuSans-30" x="63.623047"/>
       <use xlink:href="#DejaVuSans-3a" x="127.246094"/>
       <use xlink:href="#DejaVuSans-31" x="160.9375"/>
       <use xlink:href="#DejaVuSans-30" x="224.560547"/>
      </g>
     </g>
    </g>
    <g id="text_24">
     <!-- Flowrate (G:R) -->
     <g transform="translate(509.079063 346.49625) scale(0.12 -0.12)">
      <defs>
       <path id="DejaVuSans-Bold-77" d="M 225 3500 
L 1313 3500 
L 1900 1088 
L 2491 3500 
L 3425 3500 
L 4013 1113 
L 4603 3500 
L 5691 3500 
L 4769 0 
L 3547 0 
L 2956 2406 
L 2369 0 
L 1147 0 
L 225 3500 
z
" transform="scale(0.015625)"/>
       <path id="DejaVuSans-Bold-61" d="M 2106 1575 
Q 1756 1575 1579 1456 
Q 1403 1338 1403 1106 
Q 1403 894 1545 773 
Q 1688 653 1941 653 
Q 2256 653 2472 879 
Q 2688 1106 2688 1447 
L 2688 1575 
L 2106 1575 
z
M 3816 1997 
L 3816 0 
L 2688 0 
L 2688 519 
Q 2463 200 2181 54 
Q 1900 -91 1497 -91 
Q 953 -91 614 226 
Q 275 544 275 1050 
Q 275 1666 698 1953 
Q 1122 2241 2028 2241 
L 2688 2241 
L 2688 2328 
Q 2688 2594 2478 2717 
Q 2269 2841 1825 2841 
Q 1466 2841 1156 2769 
Q 847 2697 581 2553 
L 581 3406 
Q 941 3494 1303 3539 
Q 1666 3584 2028 3584 
Q 2975 3584 3395 3211 
Q 3816 2838 3816 1997 
z
" transform="scale(0.015625)"/>
       <path id="DejaVuSans-Bold-47" d="M 4781 347 
Q 4331 128 3847 18 
Q 3363 -91 2847 -91 
Q 1681 -91 1000 561 
Q 319 1213 319 2328 
Q 319 3456 1012 4103 
Q 1706 4750 2913 4750 
Q 3378 4750 3804 4662 
Q 4231 4575 4609 4403 
L 4609 3438 
Q 4219 3659 3833 3768 
Q 3447 3878 3059 3878 
Q 2341 3878 1952 3476 
Q 1563 3075 1563 2328 
Q 1563 1588 1938 1184 
Q 2313 781 3003 781 
Q 3191 781 3352 804 
Q 3513 828 3641 878 
L 3641 1784 
L 2906 1784 
L 2906 2591 
L 4781 2591 
L 4781 347 
z
" transform="scale(0.015625)"/>
       <path id="DejaVuSans-Bold-3a" d="M 716 3500 
L 1844 3500 
L 1844 2291 
L 716 2291 
L 716 3500 
z
M 716 1209 
L 1844 1209 
L 1844 0 
L 716 0 
L 716 1209 
z
" transform="scale(0.015625)"/>
      </defs>
      <use xlink:href="#DejaVuSans-Bold-46"/>
      <use xlink:href="#DejaVuSans-Bold-6c" x="68.310547"/>
      <use xlink:href="#DejaVuSans-Bold-6f" x="102.587891"/>
      <use xlink:href="#DejaVuSans-Bold-77" x="171.289062"/>
      <use xlink:href="#DejaVuSans-Bold-72" x="263.671875"/>
      <use xlink:href="#DejaVuSans-Bold-61" x="312.988281"/>
      <use xlink:href="#DejaVuSans-Bold-74" x="380.46875"/>
      <use xlink:href="#DejaVuSans-Bold-65" x="428.271484"/>
      <use xlink:href="#DejaVuSans-Bold-20" x="496.09375"/>
      <use xlink:href="#DejaVuSans-Bold-28" x="530.908203"/>
      <use xlink:href="#DejaVuSans-Bold-47" x="576.611328"/>
      <use xlink:href="#DejaVuSans-Bold-3a" x="658.691406"/>
      <use xlink:href="#DejaVuSans-Bold-52" x="698.681641"/>
      <use xlink:href="#DejaVuSans-Bold-29" x="775.683594"/>
     </g>
    </g>
   </g>
   <g id="matplotlib.axis_4">
    <g id="ytick_9">
     <g id="line2d_20">
      <g>
       <use xlink:href="#mf093c6e9cf" x="407.525" y="316.7" style="stroke: #000000; stroke-width: 0.8"/>
      </g>
     </g>
     <g id="text_25">
      <!-- 0 -->
      <g transform="translate(394.1625 320.499219) scale(0.1 -0.1)">
       <use xlink:href="#DejaVuSans-30"/>
      </g>
     </g>
    </g>
    <g id="ytick_10">
     <g id="line2d_21">
      <g>
       <use xlink:href="#mf093c6e9cf" x="407.525" y="286.56817" style="stroke: #000000; stroke-width: 0.8"/>
      </g>
     </g>
     <g id="text_26">
      <!-- 100 -->
      <g transform="translate(381.4375 290.367388) scale(0.1 -0.1)">
       <use xlink:href="#DejaVuSans-31"/>
       <use xlink:href="#DejaVuSans-30" x="63.623047"/>
       <use xlink:href="#DejaVuSans-30" x="127.246094"/>
      </g>
     </g>
    </g>
    <g id="ytick_11">
     <g id="line2d_22">
      <g>
       <use xlink:href="#mf093c6e9cf" x="407.525" y="256.436339" style="stroke: #000000; stroke-width: 0.8"/>
      </g>
     </g>
     <g id="text_27">
      <!-- 200 -->
      <g transform="translate(381.4375 260.235558) scale(0.1 -0.1)">
       <use xlink:href="#DejaVuSans-32"/>
       <use xlink:href="#DejaVuSans-30" x="63.623047"/>
       <use xlink:href="#DejaVuSans-30" x="127.246094"/>
      </g>
     </g>
    </g>
    <g id="ytick_12">
     <g id="line2d_23">
      <g>
       <use xlink:href="#mf093c6e9cf" x="407.525" y="226.304509" style="stroke: #000000; stroke-width: 0.8"/>
      </g>
     </g>
     <g id="text_28">
      <!-- 300 -->
      <g transform="translate(381.4375 230.103727) scale(0.1 -0.1)">
       <use xlink:href="#DejaVuSans-33"/>
       <use xlink:href="#DejaVuSans-30" x="63.623047"/>
       <use xlink:href="#DejaVuSans-30" x="127.246094"/>
      </g>
     </g>
    </g>
    <g id="ytick_13">
     <g id="line2d_24">
      <g>
       <use xlink:href="#mf093c6e9cf" x="407.525" y="196.172678" style="stroke: #000000; stroke-width: 0.8"/>
      </g>
     </g>
     <g id="text_29">
      <!-- 400 -->
      <g transform="translate(381.4375 199.971897) scale(0.1 -0.1)">
       <use xlink:href="#DejaVuSans-34"/>
       <use xlink:href="#DejaVuSans-30" x="63.623047"/>
       <use xlink:href="#DejaVuSans-30" x="127.246094"/>
      </g>
     </g>
    </g>
    <g id="ytick_14">
     <g id="line2d_25">
      <g>
       <use xlink:href="#mf093c6e9cf" x="407.525" y="166.040848" style="stroke: #000000; stroke-width: 0.8"/>
      </g>
     </g>
     <g id="text_30">
      <!-- 500 -->
      <g transform="translate(381.4375 169.840066) scale(0.1 -0.1)">
       <use xlink:href="#DejaVuSans-35"/>
       <use xlink:href="#DejaVuSans-30" x="63.623047"/>
       <use xlink:href="#DejaVuSans-30" x="127.246094"/>
      </g>
     </g>
    </g>
    <g id="ytick_15">
     <g id="line2d_26">
      <g>
       <use xlink:href="#mf093c6e9cf" x="407.525" y="135.909017" style="stroke: #000000; stroke-width: 0.8"/>
      </g>
     </g>
     <g id="text_31">
      <!-- 600 -->
      <g transform="translate(381.4375 139.708236) scale(0.1 -0.1)">
       <use xlink:href="#DejaVuSans-36"/>
       <use xlink:href="#DejaVuSans-30" x="63.623047"/>
       <use xlink:href="#DejaVuSans-30" x="127.246094"/>
      </g>
     </g>
    </g>
    <g id="ytick_16">
     <g id="line2d_27">
      <g>
       <use xlink:href="#mf093c6e9cf" x="407.525" y="105.777187" style="stroke: #000000; stroke-width: 0.8"/>
      </g>
     </g>
     <g id="text_32">
      <!-- 700 -->
      <g transform="translate(381.4375 109.576405) scale(0.1 -0.1)">
       <use xlink:href="#DejaVuSans-37"/>
       <use xlink:href="#DejaVuSans-30" x="63.623047"/>
       <use xlink:href="#DejaVuSans-30" x="127.246094"/>
      </g>
     </g>
    </g>
    <g id="ytick_17">
     <g id="line2d_28">
      <g>
       <use xlink:href="#mf093c6e9cf" x="407.525" y="75.645356" style="stroke: #000000; stroke-width: 0.8"/>
      </g>
     </g>
     <g id="text_33">
      <!-- 800 -->
      <g transform="translate(381.4375 79.444575) scale(0.1 -0.1)">
       <use xlink:href="#DejaVuSans-38"/>
       <use xlink:href="#DejaVuSans-30" x="63.623047"/>
       <use xlink:href="#DejaVuSans-30" x="127.246094"/>
      </g>
     </g>
    </g>
    <g id="text_34">
     <!-- Red Fluorescence (RFU) -->
     <g transform="translate(374.941875 264.81) rotate(-90) scale(0.12 -0.12)">
      <use xlink:href="#DejaVuSans-Bold-52"/>
      <use xlink:href="#DejaVuSans-Bold-65" x="77.001953"/>
      <use xlink:href="#DejaVuSans-Bold-64" x="144.824219"/>
      <use xlink:href="#DejaVuSans-Bold-20" x="216.40625"/>
      <use xlink:href="#DejaVuSans-Bold-46" x="251.220703"/>
      <use xlink:href="#DejaVuSans-Bold-6c" x="319.53125"/>
      <use xlink:href="#DejaVuSans-Bold-75" x="353.808594"/>
      <use xlink:href="#DejaVuSans-Bold-6f" x="425"/>
      <use xlink:href="#DejaVuSans-Bold-72" x="493.701172"/>
      <use xlink:href="#DejaVuSans-Bold-65" x="543.017578"/>
      <use xlink:href="#DejaVuSans-Bold-73" x="610.839844"/>
      <use xlink:href="#DejaVuSans-Bold-63" x="670.361328"/>
      <use xlink:href="#DejaVuSans-Bold-65" x="729.638672"/>
      <use xlink:href="#DejaVuSans-Bold-6e" x="797.460938"/>
      <use xlink:href="#DejaVuSans-Bold-63" x="868.652344"/>
      <use xlink:href="#DejaVuSans-Bold-65" x="927.929688"/>
      <use xlink:href="#DejaVuSans-Bold-20" x="995.751953"/>
      <use xlink:href="#DejaVuSans-Bold-28" x="1030.566406"/>
      <use xlink:href="#DejaVuSans-Bold-52" x="1076.269531"/>
      <use xlink:href="#DejaVuSans-Bold-46" x="1153.271484"/>
      <use xlink:href="#DejaVuSans-Bold-55" x="1221.582031"/>
      <use xlink:href="#DejaVuSans-Bold-29" x="1302.783203"/>
     </g>
    </g>
   </g>
   <g id="line2d_29">
    <path d="M 482.181944 109.773745 
L 482.181944 89.443537 
" clip-path="url(#p07a60d64b5)" style="fill: none; stroke: #424242; stroke-width: 2.7; stroke-linecap: square"/>
   </g>
   <g id="line2d_30">
    <path d="M 463.136806 109.773745 
L 501.227083 109.773745 
" clip-path="url(#p07a60d64b5)" style="fill: none; stroke: #424242; stroke-width: 2.7; stroke-linecap: square"/>
   </g>
   <g id="line2d_31">
    <path d="M 463.136806 89.443537 
L 501.227083 89.443537 
" clip-path="url(#p07a60d64b5)" style="fill: none; stroke: #424242; stroke-width: 2.7; stroke-linecap: square"/>
   </g>
   <g id="line2d_32">
    <path d="M 634.543056 228.687906 
L 634.543056 211.359607 
" clip-path="url(#p07a60d64b5)" style="fill: none; stroke: #424242; stroke-width: 2.7; stroke-linecap: square"/>
   </g>
   <g id="line2d_33">
    <path d="M 615.497917 228.687906 
L 653.588194 228.687906 
" clip-path="url(#p07a60d64b5)" style="fill: none; stroke: #424242; stroke-width: 2.7; stroke-linecap: square"/>
   </g>
   <g id="line2d_34">
    <path d="M 615.497917 211.359607 
L 653.588194 211.359607 
" clip-path="url(#p07a60d64b5)" style="fill: none; stroke: #424242; stroke-width: 2.7; stroke-linecap: square"/>
   </g>
   <g id="line2d_35">
    <path d="M 482.181944 75.12638 
L 482.181944 70.353994 
L 634.543056 70.353994 
L 634.543056 75.12638 
" style="fill: none; stroke: #333333; stroke-width: 1.5; stroke-linecap: square"/>
   </g>
   <g id="patch_45">
    <path d="M 407.525 316.7 
L 407.525 51.1 
" style="fill: none; stroke: #000000; stroke-width: 0.8; stroke-linejoin: miter; stroke-linecap: square"/>
   </g>
   <g id="patch_46">
    <path d="M 709.2 316.7 
L 709.2 51.1 
" style="fill: none; stroke: #000000; stroke-width: 0.8; stroke-linejoin: miter; stroke-linecap: square"/>
   </g>
   <g id="patch_47">
    <path d="M 407.525 316.7 
L 709.2 316.7 
" style="fill: none; stroke: #000000; stroke-width: 0.8; stroke-linejoin: miter; stroke-linecap: square"/>
   </g>
   <g id="patch_48">
    <path d="M 407.525 51.1 
L 709.2 51.1 
" style="fill: none; stroke: #000000; stroke-width: 0.8; stroke-linejoin: miter; stroke-linecap: square"/>
   </g>
   <g id="text_35">
    <!-- **** -->
    <g transform="translate(548.3625 67.274306) scale(0.1 -0.1)">
     <defs>
      <path id="DejaVuSans-2a" d="M 3009 3897 
L 1888 3291 
L 3009 2681 
L 2828 2375 
L 1778 3009 
L 1778 1831 
L 1422 1831 
L 1422 3009 
L 372 2375 
L 191 2681 
L 1313 3291 
L 191 3897 
L 372 4206 
L 1422 3572 
L 1422 4750 
L 1778 4750 
L 1778 3572 
L 2828 4206 
L 3009 3897 
z
" transform="scale(0.015625)"/>
     </defs>
     <use xlink:href="#DejaVuSans-2a"/>
     <use xlink:href="#DejaVuSans-2a" x="50"/>
     <use xlink:href="#DejaVuSans-2a" x="100"/>
     <use xlink:href="#DejaVuSans-2a" x="150"/>
    </g>
   </g>
   <g id="text_36">
    <!-- t-stat: 15.554 | p-value: 9.974e-05 | KDE FC: 0.441 -->
    <g transform="translate(405.945625 45.1) scale(0.12 -0.12)">
     <use xlink:href="#DejaVuSans-74"/>
     <use xlink:href="#DejaVuSans-2d" x="39.208984"/>
     <use xlink:href="#DejaVuSans-73" x="75.292969"/>
     <use xlink:href="#DejaVuSans-74" x="127.392578"/>
     <use xlink:href="#DejaVuSans-61" x="166.601562"/>
     <use xlink:href="#DejaVuSans-74" x="227.880859"/>
     <use xlink:href="#DejaVuSans-3a" x="267.089844"/>
     <use xlink:href="#DejaVuSans-20" x="300.78125"/>
     <use xlink:href="#DejaVuSans-31" x="332.568359"/>
     <use xlink:href="#DejaVuSans-35" x="396.191406"/>
     <use xlink:href="#DejaVuSans-2e" x="459.814453"/>
     <use xlink:href="#DejaVuSans-35" x="491.601562"/>
     <use xlink:href="#DejaVuSans-35" x="555.224609"/>
     <use xlink:href="#DejaVuSans-34" x="618.847656"/>
     <use xlink:href="#DejaVuSans-20" x="682.470703"/>
     <use xlink:href="#DejaVuSans-7c" x="714.257812"/>
     <use xlink:href="#DejaVuSans-20" x="747.949219"/>
     <use xlink:href="#DejaVuSans-70" x="779.736328"/>
     <use xlink:href="#DejaVuSans-2d" x="843.212891"/>
     <use xlink:href="#DejaVuSans-76" x="876.671875"/>
     <use xlink:href="#DejaVuSans-61" x="935.851562"/>
     <use xlink:href="#DejaVuSans-6c" x="997.130859"/>
     <use xlink:href="#DejaVuSans-75" x="1024.914062"/>
     <use xlink:href="#DejaVuSans-65" x="1088.292969"/>
     <use xlink:href="#DejaVuSans-3a" x="1149.816406"/>
     <use xlink:href="#DejaVuSans-20" x="1183.507812"/>
     <use xlink:href="#DejaVuSans-39" x="1215.294922"/>
     <use xlink:href="#DejaVuSans-2e" x="1278.917969"/>
     <use xlink:href="#DejaVuSans-39" x="1310.705078"/>
     <use xlink:href="#DejaVuSans-37" x="1374.328125"/>
     <use xlink:href="#DejaVuSans-34" x="1437.951172"/>
     <use xlink:href="#DejaVuSans-65" x="1501.574219"/>
     <use xlink:href="#DejaVuSans-2d" x="1563.097656"/>
     <use xlink:href="#DejaVuSans-30" x="1599.181641"/>
     <use xlink:href="#DejaVuSans-35" x="1662.804688"/>
     <use xlink:href="#DejaVuSans-20" x="1726.427734"/>
     <use xlink:href="#DejaVuSans-7c" x="1758.214844"/>
     <use xlink:href="#DejaVuSans-20" x="1791.90625"/>
     <use xlink:href="#DejaVuSans-4b" x="1823.693359"/>
     <use xlink:href="#DejaVuSans-44" x="1889.269531"/>
     <use xlink:href="#DejaVuSans-45" x="1966.271484"/>
     <use xlink:href="#DejaVuSans-20" x="2029.455078"/>
     <use xlink:href="#DejaVuSans-46" x="2061.242188"/>
     <use xlink:href="#DejaVuSans-43" x="2118.761719"/>
     <use xlink:href="#DejaVuSans-3a" x="2188.585938"/>
     <use xlink:href="#DejaVuSans-20" x="2222.277344"/>
     <use xlink:href="#DejaVuSans-30" x="2254.064453"/>
     <use xlink:href="#DejaVuSans-2e" x="2317.6875"/>
     <use xlink:href="#DejaVuSans-34" x="2349.474609"/>
     <use xlink:href="#DejaVuSans-34" x="2413.097656"/>
     <use xlink:href="#DejaVuSans-31" x="2476.720703"/>
    </g>
   </g>
  </g>
  <g id="text_37">
   <!-- Red Fluorescence Distributions Over Flowrates -->
   <g transform="translate(174.10625 17.837812) scale(0.14 -0.14)">
    <defs>
     <path id="DejaVuSans-Bold-44" d="M 1791 3756 
L 1791 909 
L 2222 909 
Q 2959 909 3348 1275 
Q 3738 1641 3738 2338 
Q 3738 3031 3350 3393 
Q 2963 3756 2222 3756 
L 1791 3756 
z
M 588 4666 
L 1856 4666 
Q 2919 4666 3439 4514 
Q 3959 4363 4331 4000 
Q 4659 3684 4818 3271 
Q 4978 2859 4978 2338 
Q 4978 1809 4818 1395 
Q 4659 981 4331 666 
Q 3956 303 3431 151 
Q 2906 0 1856 0 
L 588 0 
L 588 4666 
z
" transform="scale(0.015625)"/>
     <path id="DejaVuSans-Bold-69" d="M 538 3500 
L 1656 3500 
L 1656 0 
L 538 0 
L 538 3500 
z
M 538 4863 
L 1656 4863 
L 1656 3950 
L 538 3950 
L 538 4863 
z
" transform="scale(0.015625)"/>
     <path id="DejaVuSans-Bold-62" d="M 2400 722 
Q 2759 722 2948 984 
Q 3138 1247 3138 1747 
Q 3138 2247 2948 2509 
Q 2759 2772 2400 2772 
Q 2041 2772 1848 2508 
Q 1656 2244 1656 1747 
Q 1656 1250 1848 986 
Q 2041 722 2400 722 
z
M 1656 2988 
Q 1888 3294 2169 3439 
Q 2450 3584 2816 3584 
Q 3463 3584 3878 3070 
Q 4294 2556 4294 1747 
Q 4294 938 3878 423 
Q 3463 -91 2816 -91 
Q 2450 -91 2169 54 
Q 1888 200 1656 506 
L 1656 0 
L 538 0 
L 538 4863 
L 1656 4863 
L 1656 2988 
z
" transform="scale(0.015625)"/>
     <path id="DejaVuSans-Bold-4f" d="M 2719 3878 
Q 2169 3878 1866 3472 
Q 1563 3066 1563 2328 
Q 1563 1594 1866 1187 
Q 2169 781 2719 781 
Q 3272 781 3575 1187 
Q 3878 1594 3878 2328 
Q 3878 3066 3575 3472 
Q 3272 3878 2719 3878 
z
M 2719 4750 
Q 3844 4750 4481 4106 
Q 5119 3463 5119 2328 
Q 5119 1197 4481 553 
Q 3844 -91 2719 -91 
Q 1597 -91 958 553 
Q 319 1197 319 2328 
Q 319 3463 958 4106 
Q 1597 4750 2719 4750 
z
" transform="scale(0.015625)"/>
     <path id="DejaVuSans-Bold-76" d="M 97 3500 
L 1216 3500 
L 2088 1081 
L 2956 3500 
L 4078 3500 
L 2700 0 
L 1472 0 
L 97 3500 
z
" transform="scale(0.015625)"/>
    </defs>
    <use xlink:href="#DejaVuSans-Bold-52"/>
    <use xlink:href="#DejaVuSans-Bold-65" x="77.001953"/>
    <use xlink:href="#DejaVuSans-Bold-64" x="144.824219"/>
    <use xlink:href="#DejaVuSans-Bold-20" x="216.40625"/>
    <use xlink:href="#DejaVuSans-Bold-46" x="251.220703"/>
    <use xlink:href="#DejaVuSans-Bold-6c" x="319.53125"/>
    <use xlink:href="#DejaVuSans-Bold-75" x="353.808594"/>
    <use xlink:href="#DejaVuSans-Bold-6f" x="425"/>
    <use xlink:href="#DejaVuSans-Bold-72" x="493.701172"/>
    <use xlink:href="#DejaVuSans-Bold-65" x="543.017578"/>
    <use xlink:href="#DejaVuSans-Bold-73" x="610.839844"/>
    <use xlink:href="#DejaVuSans-Bold-63" x="670.361328"/>
    <use xlink:href="#DejaVuSans-Bold-65" x="729.638672"/>
    <use xlink:href="#DejaVuSans-Bold-6e" x="797.460938"/>
    <use xlink:href="#DejaVuSans-Bold-63" x="868.652344"/>
    <use xlink:href="#DejaVuSans-Bold-65" x="927.929688"/>
    <use xlink:href="#DejaVuSans-Bold-20" x="995.751953"/>
    <use xlink:href="#DejaVuSans-Bold-44" x="1030.566406"/>
    <use xlink:href="#DejaVuSans-Bold-69" x="1113.574219"/>
    <use xlink:href="#DejaVuSans-Bold-73" x="1147.851562"/>
    <use xlink:href="#DejaVuSans-Bold-74" x="1207.373047"/>
    <use xlink:href="#DejaVuSans-Bold-72" x="1255.175781"/>
    <use xlink:href="#DejaVuSans-Bold-69" x="1304.492188"/>
    <use xlink:href="#DejaVuSans-Bold-62" x="1338.769531"/>
    <use xlink:href="#DejaVuSans-Bold-75" x="1410.351562"/>
    <use xlink:href="#DejaVuSans-Bold-74" x="1481.542969"/>
    <use xlink:href="#DejaVuSans-Bold-69" x="1529.345703"/>
    <use xlink:href="#DejaVuSans-Bold-6f" x="1563.623047"/>
    <use xlink:href="#DejaVuSans-Bold-6e" x="1632.324219"/>
    <use xlink:href="#DejaVuSans-Bold-73" x="1703.515625"/>
    <use xlink:href="#DejaVuSans-Bold-20" x="1763.037109"/>
    <use xlink:href="#DejaVuSans-Bold-4f" x="1797.851562"/>
    <use xlink:href="#DejaVuSans-Bold-76" x="1882.861328"/>
    <use xlink:href="#DejaVuSans-Bold-65" x="1948.046875"/>
    <use xlink:href="#DejaVuSans-Bold-72" x="2015.869141"/>
    <use xlink:href="#DejaVuSans-Bold-20" x="2065.185547"/>
    <use xlink:href="#DejaVuSans-Bold-46" x="2100"/>
    <use xlink:href="#DejaVuSans-Bold-6c" x="2168.310547"/>
    <use xlink:href="#DejaVuSans-Bold-6f" x="2202.587891"/>
    <use xlink:href="#DejaVuSans-Bold-77" x="2271.289062"/>
    <use xlink:href="#DejaVuSans-Bold-72" x="2363.671875"/>
    <use xlink:href="#DejaVuSans-Bold-61" x="2412.988281"/>
    <use xlink:href="#DejaVuSans-Bold-74" x="2480.46875"/>
    <use xlink:href="#DejaVuSans-Bold-65" x="2528.271484"/>
    <use xlink:href="#DejaVuSans-Bold-73" x="2596.09375"/>
   </g>
  </g>
 </g>
 <defs>
  <clipPath id="p7619d9bcb1">
   <rect x="52.925" y="51.1" width="301.675" height="265.6"/>
  </clipPath>
  <clipPath id="p07a60d64b5">
   <rect x="407.525" y="51.1" width="301.675" height="265.6"/>
  </clipPath>
 </defs>
</svg>
